<svg xmlns="http://www.w3.org/2000/svg" width="32" height="32" viewBox="0 0 32 32" fill="none">
    <g id="arrow">
        <line id="Line 14" x1="0.707107" y1="1.29289" x2="5.70711" y2="6.29289" stroke="#ABB2BF" stroke-width="2" />
        <line id="Line 15" x1="4.29289" y1="6.29289" x2="9.29289" y2="1.29289" stroke="#ABB2BF" stroke-width="2" />
    </g>

    <g id="line">
        <path fill-rule="evenodd" clip-rule="evenodd" d="M0.499992 191L0.5 -4.37114e-08L1.5 0L1.49999 191L0.499992 191Z"
            fill="#ABB2BF" />
    </g>

    <g id="lineTitle">
        <path fill-rule="evenodd" clip-rule="evenodd" d="M239 1.5H0V0.5H239V1.5Z" fill="#C778DD" />
    </g>

    <g id="circle">
        <circle cx="2" cy="2.5" r="2" fill="#ABB2BF" />
    </g>

    <g id="squareCicle">
        <circle cx="2" cy="2" r="2" fill="#ABB2BF" />
        <circle cx="16.75" cy="2" r="2" fill="#ABB2BF" />
        <circle cx="31.5" cy="2" r="2" fill="#ABB2BF" />
        <circle cx="46.25" cy="2" r="2" fill="#ABB2BF" />
        <circle cx="61" cy="2" r="2" fill="#ABB2BF" />
        <circle cx="2" cy="16.75" r="2" fill="#ABB2BF" />
        <circle cx="16.75" cy="16.75" r="2" fill="#ABB2BF" />
        <circle cx="31.5" cy="16.75" r="2" fill="#ABB2BF" />
        <circle cx="46.25" cy="16.75" r="2" fill="#ABB2BF" />
        <circle cx="61" cy="16.75" r="2" fill="#ABB2BF" />
        <circle cx="2" cy="31.5" r="2" fill="#ABB2BF" />
        <circle cx="16.75" cy="31.5" r="2" fill="#ABB2BF" />
        <circle cx="31.5" cy="31.5" r="2" fill="#ABB2BF" />
        <circle cx="46.25" cy="31.5" r="2" fill="#ABB2BF" />
        <circle cx="61" cy="31.5" r="2" fill="#ABB2BF" />
        <circle cx="2" cy="46.25" r="2" fill="#ABB2BF" />
        <circle cx="16.75" cy="46.25" r="2" fill="#ABB2BF" />
        <circle cx="31.5" cy="46.25" r="2" fill="#ABB2BF" />
        <circle cx="46.25" cy="46.25" r="2" fill="#ABB2BF" />
        <circle cx="61" cy="46.25" r="2" fill="#ABB2BF" />
        <circle cx="2" cy="61" r="2" fill="#ABB2BF" />
        <circle cx="16.75" cy="61" r="2" fill="#ABB2BF" />
        <circle cx="31.5" cy="61" r="2" fill="#ABB2BF" />
        <circle cx="46.25" cy="61" r="2" fill="#ABB2BF" />
        <circle cx="61" cy="61" r="2" fill="#ABB2BF" />
    </g>
    <!-- quote -->
    <g id="quote">
        <path
            d="M10.56 15.616C10.56 17.0453 10.0373 18.2507 8.992 19.232C7.968 20.2133 6.72 20.704 5.248 20.704C3.73333 20.704 2.47467 20.2133 1.472 19.232C0.490667 18.2507 0 17.0453 0 15.616C0 14.9333 0.096 14.208 0.288 13.44C0.48 12.672 0.864 11.68 1.44 10.464L6.4 0H11.2L8.544 11.584C9.14133 12.0107 9.62133 12.576 9.984 13.28C10.368 13.9627 10.56 14.7413 10.56 15.616ZM24.8 15.616C24.8 17.0453 24.2773 18.2507 23.232 19.232C22.1867 20.2133 20.9387 20.704 19.488 20.704C18.016 20.704 16.768 20.2133 15.744 19.232C14.7413 18.2507 14.24 17.0453 14.24 15.616C14.24 14.9333 14.336 14.208 14.528 13.44C14.72 12.672 15.1147 11.68 15.712 10.464L20.704 0H25.472L22.784 11.584C23.4027 12.0107 23.8933 12.576 24.256 13.28C24.6187 13.9627 24.8 14.7413 24.8 15.616Z"
            fill="#ABB2BF" />
    </g>

    <!-- logo -->
    <g id="logo">
        <path fill-rule="evenodd" clip-rule="evenodd"
            d="M12 0.5H8V4.5H4H0V8.5V12.5V16.5H4H8V12.5H12H16V8.5V4.5V0.5H12ZM4 12.5H8V8.5H12V4.5H8V8.5H4V12.5Z"
            fill="white" />
    </g>

    <g id="logoNotBackground">
        <mask id="path-1-inside-1_1103_3692" fill="white">
            <path fill-rule="evenodd" clip-rule="evenodd"
                d="M0 39.75H38.75H77.5V78.5H38.75V117.25H77.5V156H38.75H0V117.25V78.5V39.75Z" />
        </mask>
        <path
            d="M0 39.75V38.75H-1V39.75H0ZM77.5 39.75H78.5V38.75H77.5V39.75ZM77.5 78.5V79.5H78.5V78.5H77.5ZM38.75 78.5V77.5H37.75V78.5H38.75ZM38.75 117.25H37.75V118.25H38.75V117.25ZM77.5 117.25H78.5V116.25H77.5V117.25ZM77.5 156V157H78.5V156H77.5ZM0 156H-1V157H0V156ZM38.75 38.75H0V40.75H38.75V38.75ZM77.5 38.75H38.75V40.75H77.5V38.75ZM78.5 78.5V39.75H76.5V78.5H78.5ZM38.75 79.5H77.5V77.5H38.75V79.5ZM39.75 117.25V78.5H37.75V117.25H39.75ZM38.75 118.25H77.5V116.25H38.75V118.25ZM76.5 117.25V156H78.5V117.25H76.5ZM77.5 155H38.75V157H77.5V155ZM0 157H38.75V155H0V157ZM-1 117.25V156H1V117.25H-1ZM-1 78.5V117.25H1V78.5H-1ZM-1 39.75V78.5H1V39.75H-1Z"
            fill="#C778DD" mask="url(#path-1-inside-1_1103_3692)" />
        <mask id="path-3-outside-2_1103_3692" maskUnits="userSpaceOnUse" x="76.5" y="0" width="80" height="119"
            fill="black">
            <rect fill="white" x="76.5" width="80" height="119" />
            <path fill-rule="evenodd" clip-rule="evenodd"
                d="M77.5 1H116.25H155V39.75V78.5V117.25H116.25H77.5V78.5H116.25V39.75H77.5V1Z" />
        </mask>
        <path
            d="M77.5 1V0H76.5V1H77.5ZM155 1H156V0H155V1ZM155 117.25V118.25H156V117.25H155ZM77.5 117.25H76.5V118.25H77.5V117.25ZM77.5 78.5V77.5H76.5V78.5H77.5ZM116.25 78.5V79.5H117.25V78.5H116.25ZM116.25 39.75H117.25V38.75H116.25V39.75ZM77.5 39.75H76.5V40.75H77.5V39.75ZM116.25 0H77.5V2H116.25V0ZM155 0H116.25V2H155V0ZM156 39.75V1H154V39.75H156ZM156 78.5V39.75H154V78.5H156ZM156 117.25V78.5H154V117.25H156ZM116.25 118.25H155V116.25H116.25V118.25ZM116.25 116.25H77.5V118.25H116.25V116.25ZM78.5 117.25V78.5H76.5V117.25H78.5ZM77.5 79.5H116.25V77.5H77.5V79.5ZM115.25 39.75V78.5H117.25V39.75H115.25ZM77.5 40.75H116.25V38.75H77.5V40.75ZM76.5 1V39.75H78.5V1H76.5Z"
            fill="#C778DD" mask="url(#path-3-outside-2_1103_3692)" />
    </g>

    <!-- social -->
    <g id="github">
        <path
            d="M15.5 6C9.69875 6 5 10.5882 5 16.2529C5 20.7899 8.00562 24.6219 12.1794 25.9804C12.7044 26.0701 12.9012 25.7625 12.9012 25.4934C12.9012 25.2499 12.8881 24.4425 12.8881 23.5838C10.25 24.058 9.5675 22.9558 9.3575 22.3791C9.23938 22.0843 8.7275 21.1743 8.28125 20.9308C7.91375 20.7386 7.38875 20.2644 8.26813 20.2516C9.095 20.2388 9.68563 20.9949 9.8825 21.3025C10.8275 22.8533 12.3369 22.4175 12.9406 22.1484C13.0325 21.4819 13.3081 21.0334 13.61 20.777C11.2737 20.5207 8.8325 19.6364 8.8325 15.7147C8.8325 14.5997 9.23938 13.6769 9.90875 12.9592C9.80375 12.7029 9.43625 11.6519 10.0138 10.2422C10.0138 10.2422 10.8931 9.97301 12.9012 11.2931C13.7413 11.0624 14.6338 10.947 15.5263 10.947C16.4188 10.947 17.3113 11.0624 18.1513 11.2931C20.1594 9.9602 21.0387 10.2422 21.0387 10.2422C21.6163 11.6519 21.2488 12.7029 21.1438 12.9592C21.8131 13.6769 22.22 14.5868 22.22 15.7147C22.22 19.6492 19.7656 20.5207 17.4294 20.777C17.81 21.0975 18.1381 21.7126 18.1381 22.6738C18.1381 24.0452 18.125 25.1474 18.125 25.4934C18.125 25.7625 18.3219 26.0829 18.8469 25.9804C20.9314 25.2935 22.7428 23.9854 24.026 22.2403C25.3092 20.4953 25.9996 18.4012 26 16.2529C26 10.5882 21.3013 6 15.5 6Z"
            fill="#ABB2BF" />
    </g>

    <g id="linkedin">
        <path
            d="M0 1.719C0 0.7695 0.789 0 1.7625 0H22.2375C23.211 0 24 0.7695 24 1.719V22.281C24 23.2305 23.211 24 22.2375 24H1.7625C0.789 24 0 23.2305 0 22.281V1.719ZM7.4145 20.091V9.2535H3.813V20.091H7.4145ZM5.6145 7.773C6.87 7.773 7.6515 6.942 7.6515 5.901C7.629 4.8375 6.8715 4.029 5.6385 4.029C4.4055 4.029 3.6 4.839 3.6 5.901C3.6 6.942 4.3815 7.773 5.5905 7.773H5.6145ZM12.9765 20.091V14.0385C12.9765 13.7145 13.0005 13.3905 13.0965 13.1595C13.356 12.513 13.9485 11.8425 14.9445 11.8425C16.248 11.8425 16.7685 12.8355 16.7685 14.2935V20.091H20.37V13.875C20.37 10.545 18.594 8.997 16.224 8.997C14.313 8.997 13.4565 10.047 12.9765 10.7865V10.824H12.9525C12.9605 10.8115 12.9685 10.799 12.9765 10.7865V9.2535H9.3765C9.4215 10.2705 9.3765 20.091 9.3765 20.091H12.9765Z"
            fill="#ABB2BF" />
    </g>

    <g id="figma">
        <path
            d="M16 16C16 15.1159 16.3687 14.2681 17.0251 13.643C17.6815 13.0179 18.5717 12.6667 19.5 12.6667C20.4283 12.6667 21.3185 13.0179 21.9749 13.643C22.6313 14.2681 23 15.1159 23 16C23 16.8841 22.6313 17.7319 21.9749 18.357C21.3185 18.9821 20.4283 19.3333 19.5 19.3333C18.5717 19.3333 17.6815 18.9821 17.0251 18.357C16.3687 17.7319 16 16.8841 16 16ZM9 22.6667C9 21.7826 9.36875 20.9348 10.0251 20.3096C10.6815 19.6845 11.5717 19.3333 12.5 19.3333H16V22.6667C16 23.5507 15.6313 24.3986 14.9749 25.0237C14.3185 25.6488 13.4283 26 12.5 26C11.5717 26 10.6815 25.6488 10.0251 25.0237C9.36875 24.3986 9 23.5507 9 22.6667ZM16 6V12.6667H19.5C20.4283 12.6667 21.3185 12.3155 21.9749 11.6904C22.6313 11.0652 23 10.2174 23 9.33333C23 8.44928 22.6313 7.60143 21.9749 6.97631C21.3185 6.35119 20.4283 6 19.5 6H16ZM9 9.33333C9 10.2174 9.36875 11.0652 10.0251 11.6904C10.6815 12.3155 11.5717 12.6667 12.5 12.6667H16V6H12.5C11.5717 6 10.6815 6.35119 10.0251 6.97631C9.36875 7.60143 9 8.44928 9 9.33333ZM9 16C9 16.8841 9.36875 17.7319 10.0251 18.357C10.6815 18.9821 11.5717 19.3333 12.5 19.3333H16V12.6667H12.5C11.5717 12.6667 10.6815 13.0179 10.0251 13.643C9.36875 14.2681 9 15.1159 9 16Z"
            fill="#ABB2BF" />
    </g>

    <g id="email">
        <path
            d="M5.07187 9.20292C5.2168 8.57709 5.57307 8.01832 6.08232 7.6181C6.59158 7.21789 7.22365 6.99996 7.875 7H25.125C25.7764 6.99996 26.4084 7.21789 26.9177 7.6181C27.4269 8.01832 27.7832 8.57709 27.9281 9.20292L16.5 16.0865L5.07187 9.20292ZM5 10.8207V20.8847L13.3418 15.8442L5 10.8207ZM14.7189 16.6758L5.27456 22.3807C5.50791 22.8657 5.87619 23.2753 6.33656 23.5619C6.79693 23.8486 7.33044 24.0005 7.875 24H25.125C25.6695 24.0001 26.2028 23.8479 26.6629 23.561C27.123 23.274 27.491 22.8643 27.724 22.3793L18.2796 16.6744L16.5 17.7468L14.7189 16.6744V16.6758ZM19.6582 15.8457L28 20.8847V10.8207L19.6582 15.8442V15.8457Z"
            fill="#ABB2BF" />
    </g>

    <g id="telegramm">
        <path d="M23 11.5C23 14.55 21.7884 17.4751 19.6317 19.6317C17.4751 21.7884 14.55 23 11.5 23C8.45001 23 5.52494 21.7884 3.36827 19.6317C1.2116 17.4751 0 14.55 0 11.5C0 8.45001 1.2116 5.52494 3.36827 3.36827C5.52494 1.2116 8.45001 0 11.5 0C14.55 0 17.4751 1.2116 19.6317 3.36827C21.7884 5.52494 23 8.45001 23 11.5ZM11.9126 8.48987C10.7942 8.95563 8.55744 9.91875 5.20519 11.3792C4.66181 11.5949 4.37575 11.8076 4.34987 12.0146C4.30675 12.3639 4.74519 12.5019 5.34175 12.6903L5.59331 12.7693C6.17981 12.9605 6.97044 13.1833 7.38012 13.1919C7.75387 13.2006 8.16931 13.0482 8.62787 12.7319C11.7602 10.6174 13.3774 9.54931 13.478 9.52631C13.5499 9.50906 13.6505 9.48894 13.7166 9.54931C13.7842 9.60825 13.777 9.72181 13.7698 9.752C13.7267 9.93744 12.006 11.5359 11.1162 12.3639C10.8387 12.6227 10.6418 12.8053 10.6016 12.8469C10.5129 12.9375 10.4228 13.0267 10.3313 13.1143C9.78506 13.6404 9.37681 14.0343 10.3529 14.6783C10.8229 14.9888 11.1996 15.2432 11.5747 15.4991C11.983 15.778 12.3912 16.0554 12.9202 16.4033C13.0539 16.4896 13.1833 16.583 13.3084 16.6721C13.7842 17.0114 14.214 17.3161 14.7416 17.2673C15.0492 17.2385 15.3669 16.951 15.5279 16.0885C15.9088 14.0516 16.6578 9.63988 16.8302 7.82144C16.8408 7.67027 16.8345 7.51841 16.8116 7.36862C16.798 7.24776 16.7395 7.13641 16.6477 7.05669C16.5169 6.9664 16.361 6.91962 16.2021 6.923C15.7708 6.93019 15.1052 7.16163 11.9126 8.48987Z" fill="#ABB2BF"/>
    </g>
</svg>